<svg xmlns="http://www.w3.org/2000/svg" version="1.1" xmlns:xlink="http://www.w3.org/1999/xlink" xmlns:svgjs="http://svgjs.dev/svgjs" width="1000" height="1000" viewBox="0 0 1000 1000"><rect width="1000" height="1000" fill="#ffffff"></rect><g transform="matrix(0.7,0,0,0.7,149.57575757575756,282.1265587044535)"><svg viewBox="0 0 396 247" data-background-color="#ffffff" preserveAspectRatio="xMidYMid meet" height="623" width="1000" xmlns="http://www.w3.org/2000/svg" xmlns:xlink="http://www.w3.org/1999/xlink"><defs></defs><g id="tight-bounds" transform="matrix(1,0,0,1,0.2400000000000091,-0.09999999999999432)"><svg viewBox="0 0 395.52 247.2" height="247.2" width="395.52"><g><svg></svg></g><g><svg viewBox="0 0 395.52 247.2" height="247.2" width="395.52"><g transform="matrix(1,0,0,1,75.54432,87.41802312292359)"><svg viewBox="0 0 244.43135999999998 72.36395375415282" height="72.36395375415282" width="244.43135999999998"><g><svg viewBox="0 0 244.43135999999998 72.36395375415282" height="72.36395375415282" width="244.43135999999998"><g><svg viewBox="0 0 244.43135999999998 72.36395375415282" height="72.36395375415282" width="244.43135999999998"><g><svg viewBox="0 0 244.43135999999998 72.36395375415282" height="72.36395375415282" width="244.43135999999998"><g><svg viewBox="0 0 244.43135999999998 72.36395375415282" height="72.36395375415282" width="244.43135999999998"><g><svg viewBox="0 0 244.43135999999998 72.36395375415282" height="72.36395375415282" width="244.43135999999998"><g transform="matrix(1,0,0,1,0,0)"><svg width="244.43135999999998" viewBox="0.699999988079071 -38.75 135.44000244140625 40.099998474121094" height="72.36395375415282" data-palette-color="#3c096c"><path d="M37.25-33.4Q39.1-33.05 39.68-32.83 40.25-32.6 40.45-32.15L40.45-32.15Q39.4-28.1 37.7-20.68 36-13.25 35.4-10.7L35.4-10.7Q34.3-5.6 33.35-1.65L33.35-1.65Q32.65 1.1 31.15 1.1L31.15 1.1Q26.55 1.1 26.55-1.05L26.55-1.05Q26.55-0.2 29.15-12.35L29.15-12.35 30.05-16.65 20.1-1.25Q19.3-0.25 17.75-0.25L17.75-0.25Q16.45-0.25 15.33-0.9 14.2-1.55 14.35-2.2L14.35-2.2 11.6-18.35 7.5-1.8Q7.15-0.35 6.43 0.15 5.7 0.65 3.7 0.65L3.7 0.65Q2.15 0.65 1.43 0.13 0.7-0.4 0.7-1.65L0.7-1.65Q0.7-2.2 0.85-2.7L0.85-2.7 7.7-29.75Q8.25-31.95 8.88-32.68 9.5-33.4 11.15-33.4L11.15-33.4Q12.5-33.4 13.55-33.1 14.6-32.8 14.65-32.2L14.65-32.2 14.65-32.1 18.65-7.25Q20.8-10.7 25.73-18.65 30.65-26.6 33.45-31.05L33.45-31.05Q33.95-32.3 34.58-32.68 35.2-33.05 36.02-33.2 36.85-33.35 37.25-33.4L37.25-33.4ZM26.55-1.05L26.55-1.05ZM60.9-2.6Q61-1.3 61.25-0.25L61.25-0.25Q61.15 0.05 60.37 0.35 59.6 0.65 59.05 0.65L59.05 0.65Q57.25 0.65 56.47 0.13 55.7-0.4 55.7-1.45L55.7-1.45Q55.7-2.45 55.9-3.45L55.9-3.45Q54.8-1.95 52.67-0.98 50.55 0 49.25 0L49.25 0Q45.9 0 43.67-1.95 41.45-3.9 41.45-8.2L41.45-8.2Q41.45-12.25 43.37-15.83 45.3-19.4 48.7-21.58 52.1-23.75 56.25-23.75L56.25-23.75Q57.05-23.75 58.35-23.33 59.65-22.9 60.97-21.88 62.3-20.85 63.2-19.25L63.2-19.25Q63.6-19.25 64.15-18.85 64.7-18.45 64.7-18.05L64.7-18.05Q64.7-17.6 64.55-17.15L64.55-17.15 60.9-2.6ZM58.65-16.6Q58.35-17.7 57.47-18.45 56.6-19.2 55.9-19.2L55.9-19.2Q53.6-19.2 51.57-17.57 49.55-15.95 48.3-13.55 47.05-11.15 47.05-9L47.05-9Q47.05-6.9 47.55-5.55 48.05-4.2 49.5-4.2L49.5-4.2Q50.75-4.2 52.37-4.95 54-5.7 55.27-6.98 56.55-8.25 56.95-9.65L56.95-9.65 58.65-16.6ZM72.7-1.9Q72.65-1.6 72.47-0.73 72.3 0.15 71.62 0.5 70.95 0.85 69.5 0.85L69.5 0.85Q67.85 0.85 67.1 0.5 66.35 0.15 66.35-1L66.35-1 68.75-10.55Q70.75-18.8 71.4-21.05L71.4-21.05 70.15-22.55Q70-22.7 70-22.9L70-22.9Q70-23.4 71.1-23.73 72.2-24.05 74.15-24.05L74.15-24.05Q75.9-24.05 76.5-23.08 77.1-22.1 77.25-20.55L77.25-20.55 76.9-19.25Q78.5-21.2 80.62-22.48 82.75-23.75 84.4-23.75L84.4-23.75Q86.55-23.75 87.75-23 88.95-22.25 88.95-21.05L88.95-21.05Q88.95-20 88.22-18.88 87.5-17.75 86.4-16.98 85.3-16.2 84.25-16.1L84.25-16.1Q83.25-16.1 82.9-16.35 82.55-16.6 82.55-17.1L82.55-17.1 82.85-18.75Q78.85-17.65 75.6-13.45L75.6-13.45 72.7-1.9ZM112.29-22.4Q112.49-22.1 112.82-21.28 113.14-20.45 113.14-20L113.14-20Q113.14-19.75 113.09-19.7L113.09-19.7Q112.84-19.4 111.94-19.2 111.04-19 110.74-18.95L110.74-18.95Q109.19-17.95 105.82-15.78 102.44-13.6 100.89-12.6L100.89-12.6Q100.99-11.4 102.69-8.93 104.39-6.45 106.34-4.25 108.29-2.05 108.69-2.05L108.69-2.05Q109.14-2.05 109.82-1.3 110.49-0.55 110.49 0.05L110.49 0.05Q110.49 0.6 109.79 0.75L109.79 0.75Q109.34 0.85 108.12 1.1 106.89 1.35 105.99 1.35L105.99 1.35Q105.19 1.35 104.74 1.15L104.74 1.15Q103.59 0.75 101.62-1.53 99.64-3.8 97.84-6.63 96.04-9.45 95.49-11.5L95.49-11.5Q93.89-5.05 93.24-2.68 92.59-0.3 92.19 0.43 91.79 1.15 91.24 1.15L91.24 1.15 89.84 1.2Q86.54 1.2 86.39-1.45L86.39-1.45Q87.39-3.9 87.79-5.5L87.79-5.5Q92.74-23.85 94.84-33.15L94.84-33.15Q94.79-33.9 94.74-35.23 94.69-36.55 94.69-37.3L94.69-37.3Q94.84-37.95 95.82-38.35 96.79-38.75 97.59-38.75L97.59-38.75Q98.84-38.75 100.24-37.9 101.64-37.05 101.69-35.85L101.69-35.85 97.24-18.4 96.39-14.95Q97.44-16.25 99.97-18.15 102.49-20.05 105.17-21.55 107.84-23.05 109.44-23.35L109.44-23.35Q109.84-23.35 110.92-23.1 111.99-22.85 112.29-22.4L112.29-22.4ZM130.44-19.35Q129.84-19.65 128.94-19.65L128.94-19.65Q126.69-19.65 124.44-18.75 122.19-17.85 122.19-16.45L122.19-16.45Q122.19-15.45 123.09-14.85 123.99-14.25 125.94-13.5L125.94-13.5Q128.04-12.65 129.34-11.9 130.64-11.15 131.62-9.73 132.59-8.3 132.59-6.1L132.59-6.1Q132.59-2.5 129.62-0.58 126.64 1.35 121.64 1.35L121.64 1.35Q119.19 1.35 117.09 0.6 114.99-0.15 113.77-1.33 112.54-2.5 112.44-3.65L112.44-3.65Q112.44-4.85 113.49-5.63 114.54-6.4 116.44-6.65L116.44-6.65Q116.49-5.65 117.49-4.78 118.49-3.9 119.87-3.38 121.24-2.85 122.24-2.85L122.24-2.85Q123.94-2.85 125.34-3.78 126.74-4.7 126.74-5.95L126.74-5.95Q126.74-8.25 122.29-9.6L122.29-9.6Q119.44-10.45 117.92-12.3 116.39-14.15 116.39-16.2L116.39-16.2Q116.39-20.25 120.07-22.03 123.74-23.8 129.44-23.8L129.44-23.8Q132.64-23.8 134.39-23.05 136.14-22.3 136.14-20.45L136.14-20.45Q136.14-19.2 135.22-18.25 134.29-17.3 132.59-17.3L132.59-17.3Q131.09-17.3 130.67-17.53 130.24-17.75 130.19-18.3L130.19-18.3Q130.19-18.8 130.44-19.35L130.44-19.35Z" opacity="1" transform="matrix(1,0,0,1,0,0)" fill="#000000" class="undefined-text-0" data-fill-palette-color="primary" id="text-0"></path></svg></g></svg></g></svg></g></svg></g></svg></g></svg></g></svg></g><g><path d="M151.089 176.865A122.216 122.216 0 1 0 151.089 70.335L157.614 70.335A115.69 115.69 0 1 1 157.614 176.865L151.089 176.865" fill="#3c096c" stroke="transparent" data-fill-palette-color="tertiary"></path></g></svg></g></svg><rect width="395.52" height="247.2" fill="none" stroke="none" visibility="hidden"></rect></g></svg></g></svg>